<?xml version="1.0" encoding="utf-8" standalone="no"?>
<!DOCTYPE svg PUBLIC "-//W3C//DTD SVG 1.1//EN"
  "http://www.w3.org/Graphics/SVG/1.1/DTD/svg11.dtd">
<!-- Created with matplotlib (https://matplotlib.org/) -->
<svg height="152.346125pt" version="1.1" viewBox="0 0 217.558133 152.346125" width="217.558133pt" xmlns="http://www.w3.org/2000/svg" xmlns:xlink="http://www.w3.org/1999/xlink">
 <metadata>
  <rdf:RDF xmlns:cc="http://creativecommons.org/ns#" xmlns:dc="http://purl.org/dc/elements/1.1/" xmlns:rdf="http://www.w3.org/1999/02/22-rdf-syntax-ns#">
   <cc:Work>
    <dc:type rdf:resource="http://purl.org/dc/dcmitype/StillImage"/>
    <dc:date>2022-04-18T16:39:10.183262</dc:date>
    <dc:format>image/svg+xml</dc:format>
    <dc:creator>
     <cc:Agent>
      <dc:title>Matplotlib v3.3.2, https://matplotlib.org/</dc:title>
     </cc:Agent>
    </dc:creator>
   </cc:Work>
  </rdf:RDF>
 </metadata>
 <defs>
  <style type="text/css">*{stroke-linecap:butt;stroke-linejoin:round;}</style>
 </defs>
 <g id="figure_1">
  <g id="patch_1">
   <path d="M 0 152.346125 
L 217.558133 152.346125 
L 217.558133 0 
L 0 0 
z
" style="fill:none;"/>
  </g>
  <g id="axes_1">
   <g id="patch_2">
    <path d="M 49.482813 121.968 
L 216.882812 121.968 
L 216.882812 0 
L 49.482813 0 
z
" style="fill:none;"/>
   </g>
   <g id="line2d_1">
    <path clip-path="url(#pd57cadef03)" d="M 57.091903 5.544 
L 80.047648 22.269605 
L 93.475898 32.053457 
L 103.003393 38.99521 
L 110.393492 44.379652 
L 116.431643 48.779062 
L 121.536826 52.498709 
L 125.959138 55.720815 
L 129.859893 58.562913 
L 133.349237 61.105257 
L 139.387387 65.504667 
L 146.777487 70.889109 
L 152.815637 75.288518 
L 156.304981 77.830862 
L 163.695081 83.215304 
L 167.448316 85.949919 
L 171.870627 89.172025 
L 174.838415 91.334361 
L 179.260726 94.556467 
L 186.650825 99.940909 
L 192.688976 104.340319 
L 197.79416 108.059966 
L 202.216471 111.282072 
L 209.273722 116.424 
" style="fill:none;stroke:#000000;stroke-dasharray:3.7,1.6;stroke-dashoffset:0;"/>
   </g>
   <g id="PathCollection_1">
    <defs>
     <path d="M 0 1.936492 
C 0.513564 1.936492 1.006162 1.732451 1.369306 1.369306 
C 1.732451 1.006162 1.936492 0.513564 1.936492 0 
C 1.936492 -0.513564 1.732451 -1.006162 1.369306 -1.369306 
C 1.006162 -1.732451 0.513564 -1.936492 0 -1.936492 
C -0.513564 -1.936492 -1.006162 -1.732451 -1.369306 -1.369306 
C -1.732451 -1.006162 -1.936492 -0.513564 -1.936492 0 
C -1.936492 0.513564 -1.732451 1.006162 -1.369306 1.369306 
C -1.006162 1.732451 -0.513564 1.936492 0 1.936492 
z
" id="m30171ef2bb" style="stroke:#800080;"/>
    </defs>
    <g clip-path="url(#pd57cadef03)">
     <use style="fill:#800080;stroke:#800080;" x="57.091903" xlink:href="#m30171ef2bb" y="11.209983"/>
     <use style="fill:#800080;stroke:#800080;" x="80.047648" xlink:href="#m30171ef2bb" y="24.366092"/>
     <use style="fill:#800080;stroke:#800080;" x="93.475898" xlink:href="#m30171ef2bb" y="34.965926"/>
     <use style="fill:#800080;stroke:#800080;" x="103.003393" xlink:href="#m30171ef2bb" y="41.016303"/>
     <use style="fill:#800080;stroke:#800080;" x="110.393492" xlink:href="#m30171ef2bb" y="43.668986"/>
     <use style="fill:#800080;stroke:#800080;" x="116.431643" xlink:href="#m30171ef2bb" y="50.030785"/>
     <use style="fill:#800080;stroke:#800080;" x="121.536826" xlink:href="#m30171ef2bb" y="53.63217"/>
     <use style="fill:#800080;stroke:#800080;" x="125.959138" xlink:href="#m30171ef2bb" y="55.421273"/>
     <use style="fill:#800080;stroke:#800080;" x="129.859893" xlink:href="#m30171ef2bb" y="56.940314"/>
     <use style="fill:#800080;stroke:#800080;" x="133.349237" xlink:href="#m30171ef2bb" y="61.665224"/>
     <use style="fill:#800080;stroke:#800080;" x="139.387387" xlink:href="#m30171ef2bb" y="66.005589"/>
     <use style="fill:#800080;stroke:#800080;" x="146.777487" xlink:href="#m30171ef2bb" y="71.036557"/>
     <use style="fill:#800080;stroke:#800080;" x="152.815637" xlink:href="#m30171ef2bb" y="76.815427"/>
     <use style="fill:#800080;stroke:#800080;" x="156.304981" xlink:href="#m30171ef2bb" y="79.714412"/>
     <use style="fill:#800080;stroke:#800080;" x="163.695081" xlink:href="#m30171ef2bb" y="82.980143"/>
     <use style="fill:#800080;stroke:#800080;" x="167.448316" xlink:href="#m30171ef2bb" y="86.35672"/>
     <use style="fill:#800080;stroke:#800080;" x="171.870627" xlink:href="#m30171ef2bb" y="92.258677"/>
     <use style="fill:#800080;stroke:#800080;" x="174.838415" xlink:href="#m30171ef2bb" y="92.316762"/>
     <use style="fill:#800080;stroke:#800080;" x="179.260726" xlink:href="#m30171ef2bb" y="94.389724"/>
     <use style="fill:#800080;stroke:#800080;" x="186.650825" xlink:href="#m30171ef2bb" y="99.83009"/>
     <use style="fill:#800080;stroke:#800080;" x="192.688976" xlink:href="#m30171ef2bb" y="103.136188"/>
     <use style="fill:#800080;stroke:#800080;" x="197.79416" xlink:href="#m30171ef2bb" y="108.757156"/>
     <use style="fill:#800080;stroke:#800080;" x="202.216471" xlink:href="#m30171ef2bb" y="113.045681"/>
     <use style="fill:#800080;stroke:#800080;" x="209.273722" xlink:href="#m30171ef2bb" y="116.349181"/>
    </g>
   </g>
   <g id="matplotlib.axis_1">
    <g id="xtick_1">
     <g id="line2d_2">
      <defs>
       <path d="M 0 0 
L 0 3.5 
" id="m18f6454295" style="stroke:#000000;stroke-width:0.8;"/>
      </defs>
      <g>
       <use style="stroke:#000000;stroke-width:0.8;" x="57.091903" xlink:href="#m18f6454295" y="121.968"/>
      </g>
     </g>
     <g id="text_1">
      <!-- 0.0 -->
      <g transform="translate(49.140341 136.566438)scale(0.1 -0.1)">
       <defs>
        <path d="M 31.78125 66.40625 
Q 24.171875 66.40625 20.328125 58.90625 
Q 16.5 51.421875 16.5 36.375 
Q 16.5 21.390625 20.328125 13.890625 
Q 24.171875 6.390625 31.78125 6.390625 
Q 39.453125 6.390625 43.28125 13.890625 
Q 47.125 21.390625 47.125 36.375 
Q 47.125 51.421875 43.28125 58.90625 
Q 39.453125 66.40625 31.78125 66.40625 
z
M 31.78125 74.21875 
Q 44.046875 74.21875 50.515625 64.515625 
Q 56.984375 54.828125 56.984375 36.375 
Q 56.984375 17.96875 50.515625 8.265625 
Q 44.046875 -1.421875 31.78125 -1.421875 
Q 19.53125 -1.421875 13.0625 8.265625 
Q 6.59375 17.96875 6.59375 36.375 
Q 6.59375 54.828125 13.0625 64.515625 
Q 19.53125 74.21875 31.78125 74.21875 
z
" id="DejaVuSans-48"/>
        <path d="M 10.6875 12.40625 
L 21 12.40625 
L 21 0 
L 10.6875 0 
z
" id="DejaVuSans-46"/>
       </defs>
       <use xlink:href="#DejaVuSans-48"/>
       <use x="63.623047" xlink:href="#DejaVuSans-46"/>
       <use x="95.410156" xlink:href="#DejaVuSans-48"/>
      </g>
     </g>
    </g>
    <g id="xtick_2">
     <g id="line2d_3">
      <g>
       <use style="stroke:#000000;stroke-width:0.8;" x="95.22057" xlink:href="#m18f6454295" y="121.968"/>
      </g>
     </g>
     <g id="text_2">
      <!-- 0.5 -->
      <g transform="translate(87.269008 136.566438)scale(0.1 -0.1)">
       <defs>
        <path d="M 10.796875 72.90625 
L 49.515625 72.90625 
L 49.515625 64.59375 
L 19.828125 64.59375 
L 19.828125 46.734375 
Q 21.96875 47.46875 24.109375 47.828125 
Q 26.265625 48.1875 28.421875 48.1875 
Q 40.625 48.1875 47.75 41.5 
Q 54.890625 34.8125 54.890625 23.390625 
Q 54.890625 11.625 47.5625 5.09375 
Q 40.234375 -1.421875 26.90625 -1.421875 
Q 22.3125 -1.421875 17.546875 -0.640625 
Q 12.796875 0.140625 7.71875 1.703125 
L 7.71875 11.625 
Q 12.109375 9.234375 16.796875 8.0625 
Q 21.484375 6.890625 26.703125 6.890625 
Q 35.15625 6.890625 40.078125 11.328125 
Q 45.015625 15.765625 45.015625 23.390625 
Q 45.015625 31 40.078125 35.4375 
Q 35.15625 39.890625 26.703125 39.890625 
Q 22.75 39.890625 18.8125 39.015625 
Q 14.890625 38.140625 10.796875 36.28125 
z
" id="DejaVuSans-53"/>
       </defs>
       <use xlink:href="#DejaVuSans-48"/>
       <use x="63.623047" xlink:href="#DejaVuSans-46"/>
       <use x="95.410156" xlink:href="#DejaVuSans-53"/>
      </g>
     </g>
    </g>
    <g id="xtick_3">
     <g id="line2d_4">
      <g>
       <use style="stroke:#000000;stroke-width:0.8;" x="133.349237" xlink:href="#m18f6454295" y="121.968"/>
      </g>
     </g>
     <g id="text_3">
      <!-- 1.0 -->
      <g transform="translate(125.397674 136.566438)scale(0.1 -0.1)">
       <defs>
        <path d="M 12.40625 8.296875 
L 28.515625 8.296875 
L 28.515625 63.921875 
L 10.984375 60.40625 
L 10.984375 69.390625 
L 28.421875 72.90625 
L 38.28125 72.90625 
L 38.28125 8.296875 
L 54.390625 8.296875 
L 54.390625 0 
L 12.40625 0 
z
" id="DejaVuSans-49"/>
       </defs>
       <use xlink:href="#DejaVuSans-49"/>
       <use x="63.623047" xlink:href="#DejaVuSans-46"/>
       <use x="95.410156" xlink:href="#DejaVuSans-48"/>
      </g>
     </g>
    </g>
    <g id="xtick_4">
     <g id="line2d_5">
      <g>
       <use style="stroke:#000000;stroke-width:0.8;" x="171.477903" xlink:href="#m18f6454295" y="121.968"/>
      </g>
     </g>
     <g id="text_4">
      <!-- 1.5 -->
      <g transform="translate(163.526341 136.566438)scale(0.1 -0.1)">
       <use xlink:href="#DejaVuSans-49"/>
       <use x="63.623047" xlink:href="#DejaVuSans-46"/>
       <use x="95.410156" xlink:href="#DejaVuSans-53"/>
      </g>
     </g>
    </g>
    <g id="xtick_5">
     <g id="line2d_6">
      <g>
       <use style="stroke:#000000;stroke-width:0.8;" x="209.60657" xlink:href="#m18f6454295" y="121.968"/>
      </g>
     </g>
     <g id="text_5">
      <!-- 2.0 -->
      <g transform="translate(201.655008 136.566438)scale(0.1 -0.1)">
       <defs>
        <path d="M 19.1875 8.296875 
L 53.609375 8.296875 
L 53.609375 0 
L 7.328125 0 
L 7.328125 8.296875 
Q 12.9375 14.109375 22.625 23.890625 
Q 32.328125 33.6875 34.8125 36.53125 
Q 39.546875 41.84375 41.421875 45.53125 
Q 43.3125 49.21875 43.3125 52.78125 
Q 43.3125 58.59375 39.234375 62.25 
Q 35.15625 65.921875 28.609375 65.921875 
Q 23.96875 65.921875 18.8125 64.3125 
Q 13.671875 62.703125 7.8125 59.421875 
L 7.8125 69.390625 
Q 13.765625 71.78125 18.9375 73 
Q 24.125 74.21875 28.421875 74.21875 
Q 39.75 74.21875 46.484375 68.546875 
Q 53.21875 62.890625 53.21875 53.421875 
Q 53.21875 48.921875 51.53125 44.890625 
Q 49.859375 40.875 45.40625 35.40625 
Q 44.1875 33.984375 37.640625 27.21875 
Q 31.109375 20.453125 19.1875 8.296875 
z
" id="DejaVuSans-50"/>
       </defs>
       <use xlink:href="#DejaVuSans-50"/>
       <use x="63.623047" xlink:href="#DejaVuSans-46"/>
       <use x="95.410156" xlink:href="#DejaVuSans-48"/>
      </g>
     </g>
    </g>
    <g id="text_6">
     <!-- $\log_{10}(N)$ -->
     <g transform="translate(113.232813 150.246125)scale(0.1 -0.1)">
      <defs>
       <path d="M 9.421875 75.984375 
L 18.40625 75.984375 
L 18.40625 0 
L 9.421875 0 
z
" id="DejaVuSans-108"/>
       <path d="M 30.609375 48.390625 
Q 23.390625 48.390625 19.1875 42.75 
Q 14.984375 37.109375 14.984375 27.296875 
Q 14.984375 17.484375 19.15625 11.84375 
Q 23.34375 6.203125 30.609375 6.203125 
Q 37.796875 6.203125 41.984375 11.859375 
Q 46.1875 17.53125 46.1875 27.296875 
Q 46.1875 37.015625 41.984375 42.703125 
Q 37.796875 48.390625 30.609375 48.390625 
z
M 30.609375 56 
Q 42.328125 56 49.015625 48.375 
Q 55.71875 40.765625 55.71875 27.296875 
Q 55.71875 13.875 49.015625 6.21875 
Q 42.328125 -1.421875 30.609375 -1.421875 
Q 18.84375 -1.421875 12.171875 6.21875 
Q 5.515625 13.875 5.515625 27.296875 
Q 5.515625 40.765625 12.171875 48.375 
Q 18.84375 56 30.609375 56 
z
" id="DejaVuSans-111"/>
       <path d="M 45.40625 27.984375 
Q 45.40625 37.75 41.375 43.109375 
Q 37.359375 48.484375 30.078125 48.484375 
Q 22.859375 48.484375 18.828125 43.109375 
Q 14.796875 37.75 14.796875 27.984375 
Q 14.796875 18.265625 18.828125 12.890625 
Q 22.859375 7.515625 30.078125 7.515625 
Q 37.359375 7.515625 41.375 12.890625 
Q 45.40625 18.265625 45.40625 27.984375 
z
M 54.390625 6.78125 
Q 54.390625 -7.171875 48.1875 -13.984375 
Q 42 -20.796875 29.203125 -20.796875 
Q 24.46875 -20.796875 20.265625 -20.09375 
Q 16.0625 -19.390625 12.109375 -17.921875 
L 12.109375 -9.1875 
Q 16.0625 -11.328125 19.921875 -12.34375 
Q 23.78125 -13.375 27.78125 -13.375 
Q 36.625 -13.375 41.015625 -8.765625 
Q 45.40625 -4.15625 45.40625 5.171875 
L 45.40625 9.625 
Q 42.625 4.78125 38.28125 2.390625 
Q 33.9375 0 27.875 0 
Q 17.828125 0 11.671875 7.65625 
Q 5.515625 15.328125 5.515625 27.984375 
Q 5.515625 40.671875 11.671875 48.328125 
Q 17.828125 56 27.875 56 
Q 33.9375 56 38.28125 53.609375 
Q 42.625 51.21875 45.40625 46.390625 
L 45.40625 54.6875 
L 54.390625 54.6875 
z
" id="DejaVuSans-103"/>
       <path d="M 31 75.875 
Q 24.46875 64.65625 21.28125 53.65625 
Q 18.109375 42.671875 18.109375 31.390625 
Q 18.109375 20.125 21.3125 9.0625 
Q 24.515625 -2 31 -13.1875 
L 23.1875 -13.1875 
Q 15.875 -1.703125 12.234375 9.375 
Q 8.59375 20.453125 8.59375 31.390625 
Q 8.59375 42.28125 12.203125 53.3125 
Q 15.828125 64.359375 23.1875 75.875 
z
" id="DejaVuSans-40"/>
       <path d="M 16.890625 72.90625 
L 30.171875 72.90625 
L 50.296875 10.40625 
L 62.5 72.90625 
L 72.125 72.90625 
L 57.90625 0 
L 44.578125 0 
L 24.515625 62.890625 
L 12.3125 0 
L 2.6875 0 
z
" id="DejaVuSans-Oblique-78"/>
       <path d="M 8.015625 75.875 
L 15.828125 75.875 
Q 23.140625 64.359375 26.78125 53.3125 
Q 30.421875 42.28125 30.421875 31.390625 
Q 30.421875 20.453125 26.78125 9.375 
Q 23.140625 -1.703125 15.828125 -13.1875 
L 8.015625 -13.1875 
Q 14.5 -2 17.703125 9.0625 
Q 20.90625 20.125 20.90625 31.390625 
Q 20.90625 42.671875 17.703125 53.65625 
Q 14.5 64.65625 8.015625 75.875 
z
" id="DejaVuSans-41"/>
      </defs>
      <use transform="translate(0 0.015625)" xlink:href="#DejaVuSans-108"/>
      <use transform="translate(27.783203 0.015625)" xlink:href="#DejaVuSans-111"/>
      <use transform="translate(88.964844 0.015625)" xlink:href="#DejaVuSans-103"/>
      <use transform="translate(153.398438 -16.390625)scale(0.7)" xlink:href="#DejaVuSans-49"/>
      <use transform="translate(197.93457 -16.390625)scale(0.7)" xlink:href="#DejaVuSans-48"/>
      <use transform="translate(245.205078 0.015625)" xlink:href="#DejaVuSans-40"/>
      <use transform="translate(284.21875 0.015625)" xlink:href="#DejaVuSans-Oblique-78"/>
      <use transform="translate(359.023438 0.015625)" xlink:href="#DejaVuSans-41"/>
     </g>
    </g>
   </g>
   <g id="matplotlib.axis_2">
    <g id="ytick_1">
     <g id="line2d_7">
      <defs>
       <path d="M 0 0 
L -3.5 0 
" id="m8d8528539c" style="stroke:#000000;stroke-width:0.8;"/>
      </defs>
      <g>
       <use style="stroke:#000000;stroke-width:0.8;" x="49.482813" xlink:href="#m8d8528539c" y="111.110388"/>
      </g>
     </g>
     <g id="text_7">
      <!-- −2.5 -->
      <g transform="translate(18.2 114.909607)scale(0.1 -0.1)">
       <defs>
        <path d="M 10.59375 35.5 
L 73.1875 35.5 
L 73.1875 27.203125 
L 10.59375 27.203125 
z
" id="DejaVuSans-8722"/>
       </defs>
       <use xlink:href="#DejaVuSans-8722"/>
       <use x="83.789062" xlink:href="#DejaVuSans-50"/>
       <use x="147.412109" xlink:href="#DejaVuSans-46"/>
       <use x="179.199219" xlink:href="#DejaVuSans-53"/>
      </g>
     </g>
    </g>
    <g id="ytick_2">
     <g id="line2d_8">
      <g>
       <use style="stroke:#000000;stroke-width:0.8;" x="49.482813" xlink:href="#m8d8528539c" y="83.32976"/>
      </g>
     </g>
     <g id="text_8">
      <!-- −2.0 -->
      <g transform="translate(18.2 87.128979)scale(0.1 -0.1)">
       <use xlink:href="#DejaVuSans-8722"/>
       <use x="83.789062" xlink:href="#DejaVuSans-50"/>
       <use x="147.412109" xlink:href="#DejaVuSans-46"/>
       <use x="179.199219" xlink:href="#DejaVuSans-48"/>
      </g>
     </g>
    </g>
    <g id="ytick_3">
     <g id="line2d_9">
      <g>
       <use style="stroke:#000000;stroke-width:0.8;" x="49.482813" xlink:href="#m8d8528539c" y="55.549131"/>
      </g>
     </g>
     <g id="text_9">
      <!-- −1.5 -->
      <g transform="translate(18.2 59.34835)scale(0.1 -0.1)">
       <use xlink:href="#DejaVuSans-8722"/>
       <use x="83.789062" xlink:href="#DejaVuSans-49"/>
       <use x="147.412109" xlink:href="#DejaVuSans-46"/>
       <use x="179.199219" xlink:href="#DejaVuSans-53"/>
      </g>
     </g>
    </g>
    <g id="ytick_4">
     <g id="line2d_10">
      <g>
       <use style="stroke:#000000;stroke-width:0.8;" x="49.482813" xlink:href="#m8d8528539c" y="27.768503"/>
      </g>
     </g>
     <g id="text_10">
      <!-- −1.0 -->
      <g transform="translate(18.2 31.567722)scale(0.1 -0.1)">
       <use xlink:href="#DejaVuSans-8722"/>
       <use x="83.789062" xlink:href="#DejaVuSans-49"/>
       <use x="147.412109" xlink:href="#DejaVuSans-46"/>
       <use x="179.199219" xlink:href="#DejaVuSans-48"/>
      </g>
     </g>
    </g>
    <g id="text_11">
     <!-- $\log_{10}(E[\hat{\beta}_{MLE}^{(N)}]-\beta^{*})$ -->
     <g transform="translate(11.4 106.384)rotate(-90)scale(0.1 -0.1)">
      <defs>
       <path d="M 16.890625 72.90625 
L 62.984375 72.90625 
L 61.375 64.59375 
L 25.09375 64.59375 
L 20.90625 43.015625 
L 55.71875 43.015625 
L 54.109375 34.71875 
L 19.28125 34.71875 
L 14.203125 8.296875 
L 51.3125 8.296875 
L 49.703125 0 
L 2.6875 0 
z
" id="DejaVuSans-Oblique-69"/>
       <path d="M 8.59375 75.984375 
L 29.296875 75.984375 
L 29.296875 69 
L 17.578125 69 
L 17.578125 -6.203125 
L 29.296875 -6.203125 
L 29.296875 -13.1875 
L 8.59375 -13.1875 
z
" id="DejaVuSans-91"/>
       <path d="M -28.609375 79.984375 
L -21.390625 79.984375 
L -9.421875 61.625 
L -16.21875 61.625 
L -25 73.578125 
L -33.796875 61.625 
L -40.578125 61.625 
z
M -25 56 
z
" id="DejaVuSans-770"/>
       <path d="M 13.625 3.375 
L 8.9375 -20.796875 
L -0.09375 -20.796875 
L 14.5 54.34375 
Q 18.84375 76.609375 39.65625 76.609375 
Q 60.75 76.609375 57.171875 57.8125 
Q 54.734375 44.4375 45.21875 39.546875 
Q 58.015625 35.15625 55.515625 22.125 
Q 51.125 -1.078125 27.484375 -1.03125 
Q 17.140625 -0.984375 13.625 3.375 
z
M 15.921875 15.09375 
Q 19.671875 6.59375 29.296875 6.640625 
Q 43.359375 6.640625 46.34375 21.96875 
Q 49.03125 35.75 26.171875 34.671875 
L 27.78125 42.96875 
Q 45.453125 42.671875 48.53125 58.59375 
Q 50.640625 69.34375 39.203125 69.28125 
Q 26.421875 69.28125 23.484375 54.046875 
z
" id="DejaVuSans-Oblique-946"/>
       <path d="M 16.890625 72.90625 
L 31.6875 72.90625 
L 40.1875 23.78125 
L 68.40625 72.90625 
L 83.59375 72.90625 
L 69.390625 0 
L 59.8125 0 
L 72.21875 63.921875 
L 43.609375 14.015625 
L 33.984375 14.015625 
L 24.703125 64.109375 
L 12.3125 0 
L 2.6875 0 
z
" id="DejaVuSans-Oblique-77"/>
       <path d="M 16.796875 72.90625 
L 26.703125 72.90625 
L 14.203125 8.203125 
L 49.703125 8.203125 
L 48.09375 0 
L 2.6875 0 
z
" id="DejaVuSans-Oblique-76"/>
       <path d="M 30.421875 75.984375 
L 30.421875 -13.1875 
L 9.71875 -13.1875 
L 9.71875 -6.203125 
L 21.390625 -6.203125 
L 21.390625 69 
L 9.71875 69 
L 9.71875 75.984375 
z
" id="DejaVuSans-93"/>
       <path d="M 47.015625 60.890625 
L 29.5 51.421875 
L 47.015625 41.890625 
L 44.1875 37.109375 
L 27.78125 47.015625 
L 27.78125 28.609375 
L 22.21875 28.609375 
L 22.21875 47.015625 
L 5.8125 37.109375 
L 2.984375 41.890625 
L 20.515625 51.421875 
L 2.984375 60.890625 
L 5.8125 65.71875 
L 22.21875 55.8125 
L 22.21875 74.21875 
L 27.78125 74.21875 
L 27.78125 55.8125 
L 44.1875 65.71875 
z
" id="DejaVuSans-42"/>
      </defs>
      <use transform="translate(0 0.90625)" xlink:href="#DejaVuSans-108"/>
      <use transform="translate(27.783203 0.90625)" xlink:href="#DejaVuSans-111"/>
      <use transform="translate(88.964844 0.90625)" xlink:href="#DejaVuSans-103"/>
      <use transform="translate(153.398438 -15.5)scale(0.7)" xlink:href="#DejaVuSans-49"/>
      <use transform="translate(197.93457 -15.5)scale(0.7)" xlink:href="#DejaVuSans-48"/>
      <use transform="translate(245.205078 0.90625)" xlink:href="#DejaVuSans-40"/>
      <use transform="translate(284.21875 0.90625)" xlink:href="#DejaVuSans-Oblique-69"/>
      <use transform="translate(347.402344 0.90625)" xlink:href="#DejaVuSans-91"/>
      <use transform="translate(450.94873 34.015625)" xlink:href="#DejaVuSans-770"/>
      <use transform="translate(386.416016 0.90625)" xlink:href="#DejaVuSans-Oblique-946"/>
      <use transform="translate(451.191406 46.328125)scale(0.7)" xlink:href="#DejaVuSans-40"/>
      <use transform="translate(478.500977 46.328125)scale(0.7)" xlink:href="#DejaVuSans-Oblique-78"/>
      <use transform="translate(530.864258 46.328125)scale(0.7)" xlink:href="#DejaVuSans-41"/>
      <use transform="translate(451.191406 -26.4375)scale(0.7)" xlink:href="#DejaVuSans-Oblique-77"/>
      <use transform="translate(511.586914 -26.4375)scale(0.7)" xlink:href="#DejaVuSans-Oblique-76"/>
      <use transform="translate(550.585938 -26.4375)scale(0.7)" xlink:href="#DejaVuSans-Oblique-69"/>
      <use transform="translate(597.548828 0.90625)" xlink:href="#DejaVuSans-93"/>
      <use transform="translate(656.044922 0.90625)" xlink:href="#DejaVuSans-8722"/>
      <use transform="translate(759.316406 0.90625)" xlink:href="#DejaVuSans-Oblique-946"/>
      <use transform="translate(830.669974 39.1875)scale(0.7)" xlink:href="#DejaVuSans-42"/>
      <use transform="translate(868.404349 0.90625)" xlink:href="#DejaVuSans-41"/>
     </g>
    </g>
   </g>
   <g id="patch_3">
    <path d="M 49.482813 121.968 
L 49.482813 0 
" style="fill:none;stroke:#000000;stroke-linecap:square;stroke-linejoin:miter;stroke-width:0.8;"/>
   </g>
   <g id="patch_4">
    <path d="M 216.882812 121.968 
L 216.882812 0 
" style="fill:none;stroke:#000000;stroke-linecap:square;stroke-linejoin:miter;stroke-width:0.8;"/>
   </g>
   <g id="patch_5">
    <path d="M 49.482813 121.968 
L 216.882812 121.968 
" style="fill:none;stroke:#000000;stroke-linecap:square;stroke-linejoin:miter;stroke-width:0.8;"/>
   </g>
   <g id="patch_6">
    <path d="M 49.482813 0 
L 216.882812 0 
" style="fill:none;stroke:#000000;stroke-linecap:square;stroke-linejoin:miter;stroke-width:0.8;"/>
   </g>
   <g id="patch_7">
    <path d="M 122.234558 21.737153 
Q 109.986793 32.485838 98.053776 33.212914 
" style="fill:none;stroke:#000000;stroke-linecap:round;stroke-width:0.75;"/>
    <path d="M 102.168006 34.965944 
L 98.053776 33.212914 
L 101.924738 30.973348 
" style="fill:none;stroke:#000000;stroke-linecap:round;stroke-width:0.75;"/>
   </g>
   <g id="text_12">
    <!-- $E[\hat{\beta}_{MLE}^{(N)}]-\beta^{*} \simeq \frac{1}{4N}$ -->
    <g transform="translate(125.723503 22.212377)scale(0.1 -0.1)">
     <defs>
      <path d="M 73.1875 49.421875 
L 73.1875 40.71875 
Q 68.0625 36.859375 63.6875 35.171875 
Q 59.328125 33.5 54.59375 33.5 
Q 49.21875 33.5 42.09375 36.375 
L 41.265625 36.71875 
Q 40.96875 36.8125 40.234375 37.109375 
Q 32.671875 40.09375 28.078125 40.09375 
Q 23.78125 40.09375 19.578125 38.234375 
Q 15.375 36.375 10.59375 32.328125 
L 10.59375 41.015625 
Q 15.71875 44.828125 20.09375 46.5 
Q 24.46875 48.1875 29.203125 48.1875 
Q 34.578125 48.1875 41.75 45.3125 
L 42.484375 45.015625 
L 43.5625 44.578125 
Q 51.125 41.609375 55.71875 41.609375 
Q 59.90625 41.609375 64.03125 43.4375 
Q 68.171875 45.265625 73.1875 49.421875 
z
M 10.59375 25.484375 
L 73.1875 25.484375 
L 73.1875 17.1875 
L 10.59375 17.1875 
z
" id="DejaVuSans-8771"/>
      <path d="M 37.796875 64.3125 
L 12.890625 25.390625 
L 37.796875 25.390625 
z
M 35.203125 72.90625 
L 47.609375 72.90625 
L 47.609375 25.390625 
L 58.015625 25.390625 
L 58.015625 17.1875 
L 47.609375 17.1875 
L 47.609375 0 
L 37.796875 0 
L 37.796875 17.1875 
L 4.890625 17.1875 
L 4.890625 26.703125 
z
" id="DejaVuSans-52"/>
     </defs>
     <use transform="translate(0 0.90625)" xlink:href="#DejaVuSans-Oblique-69"/>
     <use transform="translate(63.183594 0.90625)" xlink:href="#DejaVuSans-91"/>
     <use transform="translate(166.72998 34.015625)" xlink:href="#DejaVuSans-770"/>
     <use transform="translate(102.197266 0.90625)" xlink:href="#DejaVuSans-Oblique-946"/>
     <use transform="translate(166.972656 46.328125)scale(0.7)" xlink:href="#DejaVuSans-40"/>
     <use transform="translate(194.282227 46.328125)scale(0.7)" xlink:href="#DejaVuSans-Oblique-78"/>
     <use transform="translate(246.645508 46.328125)scale(0.7)" xlink:href="#DejaVuSans-41"/>
     <use transform="translate(166.972656 -26.4375)scale(0.7)" xlink:href="#DejaVuSans-Oblique-77"/>
     <use transform="translate(227.368164 -26.4375)scale(0.7)" xlink:href="#DejaVuSans-Oblique-76"/>
     <use transform="translate(266.367188 -26.4375)scale(0.7)" xlink:href="#DejaVuSans-Oblique-69"/>
     <use transform="translate(313.330078 0.90625)" xlink:href="#DejaVuSans-93"/>
     <use transform="translate(371.826172 0.90625)" xlink:href="#DejaVuSans-8722"/>
     <use transform="translate(475.097656 0.90625)" xlink:href="#DejaVuSans-Oblique-946"/>
     <use transform="translate(546.451224 39.1875)scale(0.7)" xlink:href="#DejaVuSans-42"/>
     <use transform="translate(603.668021 0.90625)" xlink:href="#DejaVuSans-8771"/>
     <use transform="translate(732.939505 44.703125)scale(0.7)" xlink:href="#DejaVuSans-49"/>
     <use transform="translate(706.939505 -37.58125)scale(0.7)" xlink:href="#DejaVuSans-52"/>
     <use transform="translate(751.475638 -37.58125)scale(0.7)" xlink:href="#DejaVuSans-Oblique-78"/>
     <path d="M 706.939505 19.703125 
L 706.939505 25.953125 
L 803.838919 25.953125 
L 803.838919 19.703125 
L 706.939505 19.703125 
z
"/>
    </g>
   </g>
  </g>
 </g>
 <defs>
  <clipPath id="pd57cadef03">
   <rect height="121.968" width="167.4" x="49.482813" y="0"/>
  </clipPath>
 </defs>
</svg>
