<svg width="66" height="61" xmlns="http://www.w3.org/2000/svg" stroke-linejoin="round" stroke-linecap="round" stroke="#000" fill-rule="evenodd" fill="#fff">

 <symbol overflow="visible" id="a">
  <g id="svg_1" fill-rule="nonzero">
   <path id="svg_2" fill="#ca3c32" d="m14.518,59.33c-8.025,-0.01 -14.524,-6.52 -14.518,-14.545s6.515,-14.525 14.54,-14.523a14.54,14.54 0 0 1 14.53,14.534c-0.01,8.03 -6.52,14.534 -14.55,14.534l-0.002,0z"/>
   <path id="svg_3" fill="#9259a3" d="m49.45,59.33c-8.025,-0.01 -14.524,-6.52 -14.518,-14.545s6.515,-14.526 14.54,-14.523s14.528,6.508 14.528,14.533c0,8.03 -6.52,14.535 -14.55,14.535z"/>
   <path id="svg_4" fill="#399746" d="m31.992,29.07c-8.027,0 -14.534,-6.507 -14.534,-14.534s6.507,-14.536 14.534,-14.536s14.534,6.508 14.534,14.535a14.52,14.52 0 0 1 -14.534,14.534l0,0.001z"/>
  </g>
 </symbol>
 <g>
  <title>Layer 1</title>
  <path stroke="#000" id="svg_6" d="m14.60662,14.97043c-3.52562,0 -6.38138,-2.71576 -6.38138,-6.06856c0,-3.3528 2.85575,-6.06856 6.38138,-6.06856c3.52562,0 6.38138,2.71577 6.38138,6.06856c0,3.3528 -2.85575,6.06856 -6.38138,6.06856z" opacity="undefined" fill="#bf0000"/>
  <path id="svg_7" d="m18.2853,11.84231" opacity="NaN" stroke="#000" fill="#fff"/>
  <path stroke="#000" id="svg_8" d="m32.62463,20.37583c-3.52563,0 -6.38137,-2.71576 -6.38137,-6.06856c0,-3.3528 2.85575,-6.06857 6.38137,-6.06857c3.52562,0 6.38138,2.71577 6.38138,6.06857c0,3.3528 -2.85576,6.06856 -6.38138,6.06856z" opacity="undefined" fill="#ff7f00"/>
  <path stroke="#000" id="svg_9" d="m18.81083,40.64609c-3.52563,0 -6.38137,-2.71576 -6.38137,-6.06856c0,-3.3528 2.85575,-6.06857 6.38137,-6.06857c3.52562,0 6.38138,2.71577 6.38138,6.06857c0,3.35279 -2.85576,6.06856 -6.38138,6.06856z" opacity="undefined" fill="#bf0000"/>
  <path stroke="#000" id="svg_10" d="m37.27927,46.50194c-3.52562,0 -6.38137,-2.71576 -6.38137,-6.06856c0,-3.3528 2.85575,-6.06857 6.38137,-6.06857c3.52562,0 6.38138,2.71577 6.38138,6.06857c0,3.3528 -2.85576,6.06856 -6.38138,6.06856z" opacity="undefined" fill="#0000ff"/>
  <path stroke="#000" id="svg_11" d="m51.99397,31.33678c-3.52562,0 -6.38137,-2.71576 -6.38137,-6.06855c0,-3.3528 2.85575,-6.06857 6.38137,-6.06857c3.52562,0 6.38138,2.71577 6.38138,6.06857c0,3.35279 -2.85576,6.06855 -6.38138,6.06855z" opacity="undefined" fill="#0000ff"/>
  <path stroke="#000" id="svg_12" d="m46.58857,12.86833c-3.52562,0 -6.38137,-2.71576 -6.38137,-6.06856c0,-3.3528 2.85575,-6.06857 6.38137,-6.06857c3.52562,0 6.38138,2.71577 6.38138,6.06857c0,3.3528 -2.85576,6.06856 -6.38138,6.06856z" opacity="undefined" fill="#ff7f00"/>
  <line stroke="#000" stroke-dasharray="2,2" id="svg_13" y2="48.62906" x2="15.73275" y1="2.533" x1="63.03" fill="none"/>
  <line stroke-dasharray="2,2" stroke="#000" id="svg_14" y2="37.06751" x2="27.44445" y1="0.88135" x1="21.2883" fill="none"/>
  <path stroke="#000" id="svg_15" d="m7.39942,29.83529c-3.52562,0 -6.38137,-2.71577 -6.38137,-6.06856c0,-3.3528 2.85575,-6.06858 6.38137,-6.06858c3.52562,0 6.38138,2.71578 6.38138,6.06858c0,3.35279 -2.85576,6.06856 -6.38138,6.06856z" opacity="undefined" fill="#bf0000"/>
  <path stroke="#000" id="svg_16" d="m55.44742,46.65208c-3.52562,0 -6.38137,-2.71576 -6.38137,-6.06856c0,-3.3528 2.85575,-6.06857 6.38137,-6.06857c3.52562,0 6.38138,2.71577 6.38138,6.06857c0,3.3528 -2.85576,6.06856 -6.38138,6.06856z" opacity="undefined" fill="#0000ff"/>
 </g>
</svg>